<?xml version="1.0" encoding="UTF-8"?>
<svg id="Capa_1" xmlns="http://www.w3.org/2000/svg" xmlns:xlink="http://www.w3.org/1999/xlink" version="1.1" viewBox="0 0 3563.18 2276.34">
  <!-- Generator: Adobe Illustrator 29.4.0, SVG Export Plug-In . SVG Version: 2.1.0 Build 152)  -->
  <defs>
    <style>
      .st0 {
        fill: #fff;
      }

      .st1 {
        fill: url(#Degradado_sin_nombre);
      }

      .st2 {
        fill: url(#Degradado_sin_nombre_4);
      }

      .st3 {
        fill: url(#Degradado_sin_nombre_3);
      }

      .st4 {
        fill: url(#Degradado_sin_nombre_2);
      }
    </style>
    <linearGradient id="Degradado_sin_nombre" data-name="Degradado sin nombre" x1="22423.75" y1="-4390.44" x2="21006.14" y2="-4390.44" gradientTransform="translate(23726.62 5532.53) rotate(-180) scale(1 -1)" gradientUnits="userSpaceOnUse">
      <stop offset="0" stop-color="#4776e4"/>
      <stop offset="1" stop-color="#8d54e7"/>
    </linearGradient>
    <linearGradient id="Degradado_sin_nombre_2" data-name="Degradado sin nombre 2" x1="-378.64" y1="-4862.32" x2="955.83" y2="-4862.32" gradientTransform="translate(1416.82 5532.53)" gradientUnits="userSpaceOnUse">
      <stop offset="0" stop-color="#4776e4"/>
      <stop offset="1" stop-color="#8d54e7"/>
    </linearGradient>
    <linearGradient id="Degradado_sin_nombre_3" data-name="Degradado sin nombre 3" x1="-379.21" y1="-3926.31" x2="955.26" y2="-3926.31" gradientTransform="translate(1416.82 5532.53)" gradientUnits="userSpaceOnUse">
      <stop offset="0" stop-color="#4776e4"/>
      <stop offset="1" stop-color="#8d54e7"/>
    </linearGradient>
    <linearGradient id="Degradado_sin_nombre_4" data-name="Degradado sin nombre 4" x1="22883.97" y1="-4390.38" x2="22617.15" y2="-4390.38" gradientTransform="translate(23726.7 5532.48) rotate(-180) scale(1 -1)" gradientUnits="userSpaceOnUse">
      <stop offset="0" stop-color="#4776e4"/>
      <stop offset="1" stop-color="#8d54e7"/>
    </linearGradient>
  </defs>
  <rect class="st0" width="3563.18" height="2276.34"/>
  <g>
    <path class="st1" d="M2580.75,1284.84c-.94,0-1.88.06-2.75.06h-2.56c-1.69,0-3.44,0-5.12-.13h-.88c-32.01-1.69-61.2-13.89-84.21-33.25-59.77-50.32-136.36-76.27-214.5-76.27h-235.31c-100.85,0-196.13,44.96-260.7,121.97-38.64,52.26-96.28,89.59-162.8,101.85-.94.19-1.81.32-2.75.51-3.12.56-6.32,1.06-9.5,1.43-1.94.25-3.88.51-5.81.75-1.69.19-3.37.38-5.12.51-3.25.32-6.51.56-9.82.75-1.06,0-2.13.06-3.18.13-3.44.13-6.87.25-10.37.25h-1.32c-2.88,0-5.76,0-8.62-.13-.94,0-1.88-.13-2.82-.19-1.43-.06-2.88-.13-4.31-.25-3.07-.19-6.13-.38-9.13-.69-1.13-.13-2.31-.25-3.44-.38-3.25-.38-6.44-.75-9.63-1.24-1.06-.13-2.13-.32-3.12-.51-3.18-.51-6.38-1.06-9.5-1.69-1.06-.19-2.13-.43-3.18-.62-3.07-.62-6.06-1.32-9.07-2.07-1.19-.32-2.37-.56-3.56-.88-2.82-.75-5.57-1.56-8.32-2.37-1.37-.43-2.75-.81-4.12-1.24-2.5-.81-4.93-1.62-7.38-2.5-1.62-.56-3.18-1.13-4.74-1.69-2.07-.81-4.12-1.62-6.19-2.44-1.88-.75-3.75-1.5-5.63-2.31-1.62-.69-3.25-1.43-4.87-2.18-2.18-1-4.44-2-6.57-3.07-1.06-.51-2.13-1.06-3.12-1.62-2.69-1.37-5.31-2.69-7.94-4.12-.13-.06-.25-.19-.43-.25-16.63-9.19-32.07-20.13-46.26-32.57-.75-.62-1.5-1.24-2.26-1.94-1.81-1.62-3.56-3.31-5.31-4.93-1.32-1.19-2.56-2.44-3.82-3.69-1.32-1.32-2.56-2.63-3.82-3.93-1.69-1.75-3.37-3.5-5-5.25-.88-.94-1.69-1.88-2.5-2.82-2.07-2.31-4.06-4.57-6-6.94-.43-.51-.88-1.06-1.32-1.56-2.37-2.88-4.69-5.81-6.94-8.81,0,0,0-.06-.06-.13-30.13-40.07-49.02-89.03-51.83-142.17-7.94-150.74,111.91-275.45,260.96-275.45h.75c3.69,0,7.32.13,11.01.25,1.06,0,2.13,0,3.12.13,3.25.19,6.51.43,9.75.75,1.62.13,3.31.32,4.93.51,2.26.25,4.5.56,6.76.88,2.75.38,5.44.81,8.13,1.24.94.19,1.88.32,2.82.51,66.83,12.12,124.79,49.64,163.48,102.22,65.21,78.02,163.05,121.72,265.08,121.72h230.81c79.34,0,155.24-28.89,217.19-78.46,24.45-19.57,55.46-31.26,89.22-31.26h.38c78.91,0,142.85,63.96,142.85,142.85s-62.21,141.05-139.6,142.8h-.1l-.03-.07Z"/>
    <path class="st4" d="M1177.91,813.02h5.31c1.69,0,3.44,0,5.12-.13h.88c32.01-1.69,61.2-13.89,84.21-33.25,59.77-50.32,136.36-76.27,214.5-76.27h152.17c100.85,0,196.13,44.96,260.7,121.97,38.64,52.26,96.28,89.59,162.8,101.85.94.19,1.81.32,2.75.51,3.12.56,6.32,1.06,9.5,1.43,1.94.25,3.88.51,5.81.75,1.69.19,3.37.38,5.12.51,3.25.32,6.49.56,9.82.75,1.06,0,2.13,0,3.18.13,3.44.13,6.87.25,10.37.25h1.32c2.88,0,5.76,0,8.62-.13.94,0,1.88-.13,2.82-.19,1.43,0,2.88-.13,4.31-.25,3.07-.19,6.13-.38,9.13-.69,1.13-.13,2.31-.25,3.44-.38,3.25-.38,6.44-.75,9.63-1.24,1.06-.13,2.13-.32,3.12-.51,3.18-.51,6.38-1.06,9.5-1.69,1.06-.19,2.13-.43,3.18-.62,3.07-.62,6.06-1.32,9.07-2.07,1.19-.32,2.37-.56,3.56-.88,2.82-.75,5.57-1.56,8.32-2.37,1.37-.43,2.75-.81,4.12-1.24,2.5-.81,4.93-1.62,7.38-2.5,1.62-.56,3.18-1.13,4.74-1.69,2.07-.81,4.12-1.62,6.19-2.44,1.88-.75,3.75-1.5,5.63-2.31,1.62-.69,3.25-1.43,4.87-2.18,2.18-1,4.44-2,6.57-3.07,1.06-.51,2.13-1.06,3.12-1.62,2.69-1.37,5.31-2.69,7.94-4.12.13,0,.25-.19.43-.25,16.63-9.19,32.07-20.13,46.26-32.57.75-.62,1.5-1.24,2.26-1.94,1.81-1.62,3.56-3.31,5.31-4.93,1.32-1.19,2.56-2.44,3.82-3.69,1.32-1.32,2.56-2.63,3.82-3.93,1.69-1.75,3.37-3.5,5-5.25.88-.94,1.69-1.88,2.5-2.82,2.07-2.31,4.06-4.57,6-6.94.43-.51.88-1.06,1.32-1.56,2.37-2.88,4.69-5.81,6.94-8.81l.06-.13c30.13-40.07,49.02-89.03,51.83-142.17,7.94-150.74-111.91-275.45-260.96-275.45h-.75c-3.69,0-7.32.13-11.01.25-1.06,0-2.13.06-3.12.13-3.25.19-6.49.43-9.75.75-1.62.13-3.31.32-4.93.51-2.26.25-4.5.56-6.76.88-2.75.38-5.44.81-8.13,1.24-.94.19-1.88.32-2.82.51-66.83,12.12-124.79,49.64-163.48,102.22-65.21,78.02-163.05,121.72-265.08,121.72h-147.67c-79.34,0-155.24-28.89-217.19-78.46-24.45-19.57-55.46-31.26-89.22-31.26h-.38c-78.91,0-142.85,63.96-142.85,142.85s62.21,141.05,139.6,142.8h.06v.06h.04l.03-.07Z"/>
    <path class="st3" d="M1177.34,1748.97c.94,0,1.88.06,2.75.06h2.56c1.69,0,3.44,0,5.12-.13h.88c32.01-1.69,61.2-13.89,84.21-33.25,59.77-50.32,136.36-76.27,214.5-76.27h152.17c100.85,0,196.13,44.96,260.7,121.97,38.64,52.26,96.28,89.59,162.8,101.85.94.19,1.81.32,2.75.51,3.12.56,6.32,1.06,9.5,1.43,1.94.25,3.88.51,5.81.75,1.69.19,3.37.38,5.12.51,3.25.32,6.49.56,9.82.75,1.06,0,2.13.06,3.18.13,3.44.13,6.87.25,10.37.25h1.32c2.88,0,5.76,0,8.62-.13.94,0,1.88-.13,2.82-.19,1.43-.06,2.88-.13,4.31-.25,3.07-.19,6.13-.38,9.13-.69,1.13-.13,2.31-.25,3.44-.38,3.25-.38,6.44-.75,9.63-1.24,1.06-.13,2.13-.32,3.12-.51,3.18-.51,6.38-1.06,9.5-1.69,1.06-.19,2.13-.43,3.18-.62,3.07-.62,6.06-1.32,9.07-2.07,1.19-.32,2.37-.56,3.56-.88,2.82-.75,5.57-1.56,8.32-2.37,1.37-.43,2.75-.81,4.12-1.24,2.5-.81,4.93-1.62,7.38-2.5,1.62-.56,3.18-1.13,4.74-1.69,2.07-.81,4.12-1.62,6.19-2.44,1.88-.75,3.75-1.5,5.63-2.31,1.62-.69,3.25-1.43,4.87-2.18,2.18-1,4.44-2,6.57-3.07,1.06-.51,2.13-1.06,3.12-1.62,2.69-1.37,5.31-2.69,7.94-4.12.13-.06.25-.19.43-.25,16.63-9.19,32.07-20.13,46.26-32.57.75-.62,1.5-1.24,2.26-1.94,1.81-1.62,3.56-3.31,5.31-4.93,1.32-1.19,2.56-2.44,3.82-3.69,1.32-1.32,2.56-2.63,3.82-3.93,1.69-1.75,3.37-3.5,5-5.25.88-.94,1.69-1.88,2.5-2.82,2.07-2.31,4.06-4.57,6-6.94.43-.51.88-1.06,1.32-1.56,2.37-2.88,4.69-5.81,6.94-8.81,0,0,0-.06.06-.13,30.13-40.07,49.02-89.03,51.83-142.17,7.94-150.74-111.91-275.45-260.96-275.45h-.75c-3.69,0-7.32.13-11.01.25-1.06,0-2.13.06-3.12.13-3.25.19-6.49.43-9.75.75-1.62.13-3.31.32-4.93.51-2.26.25-4.5.56-6.76.88-2.75.38-5.44.81-8.13,1.24-.94.19-1.88.32-2.82.51-66.83,12.12-124.79,49.64-163.48,102.22-65.21,78.02-163.05,121.72-265.08,121.72h-147.67c-79.34,0-155.24-28.89-217.19-78.46-24.45-19.57-55.46-31.26-89.22-31.26h-.38c-78.91,0-142.85,63.96-142.85,142.85s62.21,141.05,139.6,142.8h.1l.03-.07Z"/>
    <circle class="st2" cx="976.14" cy="1142.1" r="133.41"/>
  </g>
</svg>